<svg width="736" height="49" viewBox="0 0 736 49" fill="none" xmlns="http://www.w3.org/2000/svg">
<rect width="736" height="1" fill="#D9D9D9"/>
<path d="M698.187 32.62V40.152L692.055 32.62H691.103V42H692.209V34.552L698.341 42H699.293V32.62H698.187ZM708.068 38.374C707.998 36.316 706.542 34.93 704.68 34.93C702.776 34.93 701.11 36.358 701.11 38.57C701.11 40.768 702.776 42.182 704.61 42.182C706.164 42.182 707.368 41.426 707.914 39.984L706.962 39.76C706.472 40.866 705.59 41.244 704.61 41.244C703.42 41.244 702.244 40.32 702.146 38.766H708.068V38.374ZM704.68 35.868C705.842 35.868 706.794 36.61 706.99 37.968H702.188C702.398 36.61 703.56 35.868 704.68 35.868ZM715.858 35.098H714.57L712.442 37.94L710.314 35.098H709.026L711.658 38.598L709.026 42H710.314L712.442 39.242L714.57 42H715.858L713.226 38.598L715.858 35.098ZM721.516 40.754C721.166 41.006 720.732 41.174 720.34 41.174C719.57 41.174 719.066 40.67 719.066 39.774V35.994H721.53V35.098H719.066V32.9H717.988V35.098H716.49V35.994H717.988V39.844C717.988 41.37 718.898 42.182 720.27 42.182C720.83 42.182 721.306 42.028 721.866 41.636L721.516 40.754Z" fill="#146EB4"/>
<path d="M727.583 41.2919C727.331 41.0396 727.308 40.6449 727.514 40.3667L727.583 40.2871L730.87 37L727.583 33.7129C727.331 33.4607 727.308 33.066 727.514 32.7878L727.583 32.7081C727.835 32.4559 728.23 32.4329 728.508 32.6393L728.588 32.7081L732.377 36.4976C732.63 36.7498 732.653 37.1446 732.446 37.4227L732.377 37.5024L728.588 41.2919C728.31 41.5694 727.861 41.5694 727.583 41.2919Z" fill="#146EB4"/>
<circle cx="305" cy="37" r="12" fill="#146EB4"/>
<path d="M305.01 32.62L302.07 34.328V35.77L304.478 34.16V42H305.934V32.62H305.01Z" fill="white"/>
<path d="M334.198 40.992L336.452 38.892C337.894 37.534 338.65 36.694 338.65 35.308C338.65 33.6 337.404 32.438 335.556 32.438C333.708 32.438 332.448 33.614 332.378 35.434L333.4 35.644C333.456 34.216 334.268 33.404 335.542 33.404C336.76 33.404 337.586 34.174 337.586 35.322C337.586 36.512 336.858 37.184 335.78 38.164L332.434 41.286V42H338.748V40.992H334.198Z" fill="#146EB4"/>
<path d="M369.796 37.198C370.664 36.904 371.21 36.176 371.21 35.168C371.21 33.544 369.992 32.438 368.158 32.438C366.268 32.438 365.036 33.642 364.91 35.392L365.932 35.588C366.016 34.202 366.87 33.418 368.144 33.418C369.376 33.418 370.188 34.118 370.188 35.168C370.188 36.134 369.432 36.722 368.228 36.722H366.996V37.688H368.298C369.6 37.688 370.384 38.29 370.384 39.326C370.384 40.46 369.488 41.202 368.2 41.202C366.786 41.202 365.918 40.306 365.82 38.92L364.784 39.13C364.896 40.95 366.212 42.182 368.2 42.182C370.104 42.182 371.392 41.034 371.392 39.312C371.392 38.234 370.79 37.478 369.796 37.198Z" fill="#146EB4"/>
<path d="M432.198 40.992L434.452 38.892C435.894 37.534 436.65 36.694 436.65 35.308C436.65 33.6 435.404 32.438 433.556 32.438C431.708 32.438 430.448 33.614 430.378 35.434L431.4 35.644C431.456 34.216 432.268 33.404 433.542 33.404C434.76 33.404 435.586 34.174 435.586 35.322C435.586 36.512 434.858 37.184 433.78 38.164L430.434 41.286V42H436.748V40.992H432.198ZM440.271 32.62L437.373 34.328V35.392L439.879 33.754V42H440.957V32.62H440.271Z" fill="#146EB4"/>
<path d="M398.428 40.628C398.008 40.628 397.7 40.964 397.7 41.342C397.7 41.734 398.008 42.042 398.428 42.042C398.848 42.042 399.156 41.734 399.156 41.342C399.156 40.964 398.848 40.628 398.428 40.628ZM401.285 40.628C400.865 40.628 400.557 40.964 400.557 41.342C400.557 41.734 400.865 42.042 401.285 42.042C401.705 42.042 402.013 41.734 402.013 41.342C402.013 40.964 401.705 40.628 401.285 40.628ZM404.143 40.628C403.723 40.628 403.415 40.964 403.415 41.342C403.415 41.734 403.723 42.042 404.143 42.042C404.563 42.042 404.871 41.734 404.871 41.342C404.871 40.964 404.563 40.628 404.143 40.628Z" fill="#146EB4"/>
</svg>
