<svg xmlns="http://www.w3.org/2000/svg" width="156" height="44" fill="none" viewBox="0 0 156 44">
    <path fill="#fff" d="M70.889 10.817v20.014c.054.366-.216.68-.595.732h-2.758c-.378.052-.703-.21-.757-.575v-1.202c-1.135 1.411-2.811 2.247-5.136 2.247-4.218 0-7.733-3.501-7.733-8.1 0-4.598 3.515-8.1 7.733-8.1 2.325 0 4 .837 5.136 2.248v-7.264c-.054-.366.217-.68.595-.732h2.758c.378-.052.703.21.757.575v.157zm-4.11 13.064c.109-2.351-1.838-4.337-4.271-4.39-2.434-.104-4.488 1.777-4.542 4.129v.313c-.109 2.352 1.838 4.338 4.271 4.39 2.434.104 4.488-1.777 4.542-4.128v-.314zM85.759 16.2c.378-.053.703.209.757.574v14.057c.054.366-.217.68-.595.732h-2.758c-.378.052-.703-.21-.757-.575v-.993c-.865 1.307-2.379 1.986-4.326 1.986-2.974 0-5.19-2.195-5.19-5.957V16.93c-.055-.366.216-.68.594-.732h2.758c.379-.052.703.21.757.575v8.937c0 1.776 1.081 2.612 2.541 2.612 1.622 0 2.866-.888 2.866-3.24v-8.152c-.054-.366.216-.68.595-.732h2.758zM102.197 31.563h-3.028c-.379 0-.703-.157-.92-.418l-5.19-6.48v6.166c.054.366-.217.68-.595.732h-2.758c-.379.052-.703-.21-.757-.575V10.817c-.054-.366.216-.68.595-.732h2.758c.378-.052.702.21.756.575v12.333l4.921-6.323c.216-.314.54-.47.92-.47h3.027c.595 0 .811.418.433.888l-5.353 6.741 5.623 6.898c.433.47.217.836-.432.836zM110.632 15.781c3.515 0 6.489 2.039 6.489 6.01v9.04c.054.366-.217.68-.595.732h-2.65c-.378.052-.703-.21-.757-.575v-.732c-.919 1.098-2.271 1.725-4.325 1.725-2.812 0-5.354-1.62-5.354-4.808 0-3.187 2.542-4.807 5.354-4.807 1.568-.105 3.136.418 4.325 1.358v-1.62c0-1.828-.973-2.56-2.487-2.56-1.19 0-2.109.47-2.379 1.306-.162.418-.325.627-.757.627h-2.542c-.378.053-.702-.209-.757-.574v-.21c.433-3.135 3.245-4.86 6.435-4.912zm2.487 11.392c0-1.201-1.135-1.933-2.92-1.933-1.784 0-2.649.784-2.649 1.933 0 1.15.865 1.934 2.649 1.934 1.785 0 2.92-.836 2.92-1.934zM126.205 15.781c3.515 0 6.489 2.039 6.489 6.01v9.04c.054.366-.217.68-.595.732h-2.65c-.378.052-.703-.21-.757-.575v-.732c-.919 1.098-2.271 1.725-4.325 1.725-2.812 0-5.354-1.62-5.354-4.808 0-3.187 2.542-4.807 5.354-4.807 1.568-.105 3.136.418 4.325 1.358v-1.62c0-1.828-.973-2.56-2.487-2.56-1.19 0-2.109.47-2.379 1.306-.162.418-.325.627-.757.627h-2.542c-.378.053-.702-.209-.757-.574v-.21c.433-3.135 3.191-4.86 6.435-4.912zm2.433 11.392c0-1.201-1.135-1.933-2.92-1.933-1.784 0-2.649.784-2.649 1.933 0 1.15.865 1.934 2.649 1.934 1.785 0 2.92-.836 2.92-1.934zM143.184 15.781c2.974 0 5.137 2.195 5.137 5.958v9.092c.054.366-.217.68-.595.732h-2.758c-.378.052-.703-.21-.757-.575v-8.936c0-1.776-1.081-2.613-2.541-2.613-1.622 0-2.866.889-2.866 3.24v8.152c.054.366-.216.68-.595.732h-2.758c-.378.052-.703-.21-.757-.575V16.931c-.054-.366.217-.68.595-.732h2.758c.378-.052.703.21.757.575v.993c.919-1.254 2.379-1.933 4.38-1.986z"/>
    <path fill="#fff" d="M22.765 44c12.572 0 22.764-9.85 22.764-22S35.337 0 22.764 0C10.193 0 0 9.85 0 22s10.192 22 22.765 22z" opacity=".3"/>
    <path fill="#fff" d="M31.74 10.451H13.788c-1.73 0-3.19 1.359-3.19 3.083v16.984c0 1.672 1.406 3.03 3.19 3.03H31.74c1.73 0 3.137-1.358 3.137-3.03V13.482c0-1.672-1.406-3.03-3.137-3.03zm-8.976 13.535c-4.433 0-8.11-3.292-8.489-7.577-.054-.941.649-1.725 1.568-1.777.92-.052 1.785.627 1.839 1.515.216 2.665 2.595 4.703 5.407 4.494 2.487-.156 4.488-2.09 4.65-4.494.054-.94.865-1.62 1.838-1.567.487.052.92.26 1.244.574.325.314.433.784.433 1.202-.379 4.338-4.056 7.63-8.49 7.63zM152.052 8.57c-2.217 0-3.948 1.724-3.948 3.815 0 2.09 1.785 3.815 3.948 3.815 2.162 0 3.947-1.725 3.947-3.815.054-2.143-1.731-3.815-3.947-3.815zm0 .575c1.838 0 3.352 1.463 3.352 3.24 0 1.777-1.514 3.24-3.352 3.24-1.839 0-3.353-1.463-3.353-3.24 0-1.777 1.514-3.24 3.353-3.24zm-1.19 1.463v3.553h.595v-1.306h.811l.865 1.306h.595l-.865-1.358c.108 0 .162-.052.27-.052.162-.053.324-.157.433-.262.108-.104.162-.209.216-.366.054-.104.054-.26.054-.365 0-.105 0-.262-.054-.366-.054-.157-.108-.261-.216-.366-.109-.104-.271-.209-.433-.261-.216-.105-.487-.157-.703-.105l-1.568-.052zm.595.47h1.135c.108 0 .217.053.325.105.108.052.162.104.216.157.054.104.108.209.108.313 0 .105 0 .21-.108.314-.054.104-.108.156-.216.209l-.325.104c-.108 0-.216.053-.324 0h-.811v-1.202z"/>
</svg>
